<svg xmlns="http://www.w3.org/2000/svg" viewBox="0 0 1035.11 67.21"><defs><style>.cls-1{isolation:isolate;}.cls-2{mix-blend-mode:multiply;}.cls-3{fill:#202020;}</style></defs><g class="cls-1"><g id="Capa_2" data-name="Capa 2"><g id="Capa_1-2" data-name="Capa 1"><g class="cls-2"><path class="cls-3" d="M1035,43.24c.39-.5-.09-.6-1.5.42a12.31,12.31,0,0,1-.71,1.23C1033.54,44.38,1034.25,43.79,1035,43.24Z"/><path class="cls-3" d="M1023.94,46.86a24.56,24.56,0,0,0-2.6,1.1c-.64.32-.88.64-.17.88,1-.42,1.58-.68,2.21-.88a8.21,8.21,0,0,0,2.18-1.14c1.62-.54,2.91-.75,2.73-.41.5-.39,2.58-.91,3.18-1.77-2.22.62-4.75,1.65-7.55,2.68C1023.26,47.29,1023.83,47,1023.94,46.86Z"/><path class="cls-3" d="M914.79,50.68l1.07,0A10.29,10.29,0,0,0,914.79,50.68Z"/><path class="cls-3" d="M813,54.65c.78,0,1.1-.06,1.15-.12C813.45,54.56,812.86,54.58,813,54.65Z"/><path class="cls-3" d="M795.68,53.34l1,.09A3.26,3.26,0,0,0,795.68,53.34Z"/><path class="cls-3" d="M914.79,50.68l-2.73.07C911.9,51,913.47,50.77,914.79,50.68Z"/><path class="cls-3" d="M1001.15,44.62a11.31,11.31,0,0,0,1.44.65l-1.3-.69A.29.29,0,0,1,1001.15,44.62Z"/><path class="cls-3" d="M957,49.56l.77-.24a4,4,0,0,0,.54-.45Z"/><path class="cls-3" d="M982.66,29.2c-.43.62-.1,1.15,0,1.54a4.22,4.22,0,0,1,.57-1.62C983.1,29.06,982.94,29.07,982.66,29.2Z"/><path class="cls-3" d="M996.64,37.79a6,6,0,0,0,.69.65A8.23,8.23,0,0,1,996.64,37.79Z"/><path class="cls-3" d="M934.81,47.59a.63.63,0,0,0-.34-.15C934.48,47.51,934.61,47.56,934.81,47.59Z"/><path class="cls-3" d="M36.39,38.46c0-.05,0-.05,0-.08C36.19,38.53,36.16,38.59,36.39,38.46Z"/><path class="cls-3" d="M.43,56.26.9,56a.59.59,0,0,0-.06-.33Z"/><path class="cls-3" d="M764,50.59l.14,0C765,50.62,764.51,50.59,764,50.59Z"/><path class="cls-3" d="M481.9,30.33c3.07,1.47-5.41-1-.74,1C480.76,31,485.82,31.88,481.9,30.33Z"/><path class="cls-3" d="M1000.4,44l-1.23-.87A13.43,13.43,0,0,0,1000.4,44Z"/><path class="cls-3" d="M481.16,31.36h0l.48.21Z"/><path class="cls-3" d="M694.28,32.27a2.78,2.78,0,0,0,.68.42C695,32.63,694.8,32.52,694.28,32.27Z"/><path class="cls-3" d="M745.3,49.91,744,49.69C744.49,49.8,744.92,49.86,745.3,49.91Z"/><path class="cls-3" d="M665.36,30.56a10.14,10.14,0,0,0-2,.13l.31,0A5.26,5.26,0,0,1,665.36,30.56Z"/><path class="cls-3" d="M636,35.53a5.33,5.33,0,0,0,.56,0l.91-.25Z"/><path class="cls-3" d="M95.66,34.77l.11-1c0,.2-.12.23-.18.24h0l-.06.1a1,1,0,0,0-.09.16s0,0,0,0l0,0,0,0,0,.07A3.19,3.19,0,0,0,95.66,34.77Z"/><path class="cls-3" d="M1001.31,44.35a1.32,1.32,0,0,1-.91-.31,5.56,5.56,0,0,0,.89.54C1001.41,44.56,1001.47,44.5,1001.31,44.35Z"/><path class="cls-3" d="M664.49,35.09l-4.59.33C661.19,35.35,662.85,35.24,664.49,35.09Z"/><path class="cls-3" d="M287.43,61.17l-1-.48A4.77,4.77,0,0,0,287.43,61.17Z"/><path class="cls-3" d="M646.39,37.71a17,17,0,0,0-2.63.16,2.58,2.58,0,0,0-.5.25Z"/><path class="cls-3" d="M95.77,33.72v0Z"/><path class="cls-3" d="M71.32,48.35c4.36-1.6,1.78-1.44,2.54-2.18,5-2.29,2.55-.49,4.43-.88,3.07-1.61,5.06-3.46,7.29-4.7.22,0,.67-.2.25.23,1.42-1.15,3.69-2.58,6-4.16l1.67-1.22c.28-.2.54-.43.81-.63l.23-.2.14-.13c.18-.18.36-.37.55-.6l.3-.36.17-.21.08-.11s0,0,0,0v.09a2.38,2.38,0,0,1,0,.41,7.54,7.54,0,0,1,.11-.79,4.28,4.28,0,0,1,.22-1.05l0,.12A6.37,6.37,0,0,0,97,33.65c.15.26.28.46.4.71a2,2,0,0,1,.24.74c-.2-.26-.32-.49-.45-.65a1.46,1.46,0,0,0-.24-.25c-.14-.11-.25-.16-.39-.26a6.14,6.14,0,0,0,.4.53c.21.26.45.6.71.87.34,1-.2.47-.82-.41l-.51-.76c-.14-.17-.22-.24-.3-.1a5.61,5.61,0,0,0,.4.59l.06.07.09.12.26.37c.18.24.39.47.58.7A15,15,0,0,0,100,38.28a32.08,32.08,0,0,0,5.3,2.82c.21.45-1.64-.2-3-.91s-2.26-1.29-.44.2a16.27,16.27,0,0,1-4.07-3.62c.49,1,.69,1.26.59,1.28a2.52,2.52,0,0,1-.7-.64c-.59-.68-1.25-1.45-.33.49A15.06,15.06,0,0,0,101,40.84a17.9,17.9,0,0,0,3,1.39,52.45,52.45,0,0,0,7.06,2c1.55-.11-.39-.64,1.15-.75,4.68.36,6.43.78,7.93,1.29a11.76,11.76,0,0,0,6.08.5c1.75-.4,2.42-1.33,7.08-.63l-1.63.68a17.41,17.41,0,0,0,4.83-.12c.92-.15,1.89-.23,5.05.41-1.17.13-4.81-.27-3.9-.09,4,1,3-.11,6.14.29l.56.76c6.47.79,13.68,1.67,20.91,2.84-.44.12-1.71.11-.06.62,9.15,1.29,19.53,3.4,28.73,3.79,1.17-.18,2.33-.4,3.49-.65.81,0,1.52.22.65.36,3.59,0,.16-.37,1.86-.72,2-.18,2.71.09,1.44.41a79.44,79.44,0,0,0,11.88-3c2.15-.77,4.29-1.6,6.23-2.49s3.74-1.83,5.21-2.5c-.29.25-.66.53-1,.79l.82-.44.65-.39c.41-.26.78-.51,1.12-.75.68-.49,1.23-1,1.77-1.42a32.38,32.38,0,0,1,4.26-3.11l-.67.66c1.05-.77,2-1.57,2.89-2.22a8.31,8.31,0,0,1,2.67-1.4,10.85,10.85,0,0,1,3.12.08,11.93,11.93,0,0,0,2.18,0,5.54,5.54,0,0,0,2.51-.86,6.26,6.26,0,0,0,1.18-1l.34-.39a1.15,1.15,0,0,1,.89-.41,1.07,1.07,0,0,1,.81.51,3.5,3.5,0,0,1,.24.42l.23.57c.12.33.25.65.37,1s.36.76.53,1.13a11.71,11.71,0,0,0,.72,1.11,9.39,9.39,0,0,0,.93,1,9.19,9.19,0,0,0,4.39,2,19.44,19.44,0,0,1,2.72-.3c1.19-.1,2.55-.26,3.79-.39,2.39-.25,4.27.13,4.72-.3a7.1,7.1,0,0,1,2.43,1.55,5.39,5.39,0,0,1,.66.72,6.6,6.6,0,0,1,.56.7,56.09,56.09,0,0,1,3.79,6,10.68,10.68,0,0,0,2.08,2.35c.37.34.8.68,1.24,1.08l1.53,1.4-.39.49a20.88,20.88,0,0,0,1.87,1.24c.63.37,1.25.64,1.87,1l.68.94.72.89c.84.45,1.66.94,2.54,1.32-1-.54-1.93-1.47-1.69-1.52l6.16,3.4a19.4,19.4,0,0,1,3.36,1.95,46.52,46.52,0,0,0,10.38,1.84,10.55,10.55,0,0,1-3.44,0c.71,0,1.25.1,1.67.15a9.28,9.28,0,0,1,.95.1c.44.07.54.17.63.26s.16.19.54.27a7.67,7.67,0,0,0,.84.09c.39,0,.89,0,1.55-.06-.69-.17.4-.35.52-.47l1.1.18,1.38,0,1.57,0c.56,0,1.13-.09,1.72-.14a28.44,28.44,0,0,0,7-1.57l-.69.65c.49-.14,1-.26,1.47-.43l1.45-.57c.48-.2,1-.37,1.46-.6l1.42-.74.92-.48,1.37-.49,2.82-1c3.79-1.32,7.69-2.66,11.66-3.9-2.9.71-2.47-.2-.16-1l1.12.33c1.39-.85-2.5.53.44-.91,3-.85,2.21.09.57.82l3.55-1.33c.27.12-.55.48-.7.79,1.36-.85,6.43-1.28,8.37-2.59l.26.12c8-2.38,11.54-3.66,18-5.62,0-.57,2.55-1.21,4.36-2.22,4.83-1.24,10.27-2.39,16-4.14,4-1.46,1-.8,2.78-1.66.44.4,6.18-1.31,3.3-.09L418,34.91c-1,0-2.1.22-1.59-.1,1.58-.49,3.7-.66,3.52-.37l-.41.15a76.35,76.35,0,0,1,16.26-2.81c5.57-.47,10.82-.53,14.79-1.19a3.5,3.5,0,0,0-.45.07c1.38-.13,2.75-.2,4.14-.31s2.76-.08,4.15-.13c3.8.26-2.3.28.49.72,1.12-.08,2.17,0,3.18,0s2,.07,2.88.2c1.83.27,3.53.46,5.14.86,3.25.71,6.25,1.54,9.86,2.35,2.52,1.5,7.28,3.16,12.3,5a102.85,102.85,0,0,1,13.71,6l-.28-.51c2,.48,2.18,1.16,3.54,1.81-.1-.33-1.91-1.15-.67-.84,4,1.56,8.09,3.24,12.28,4.79,2.07.82,4.22,1.51,6.35,2.28s4.31,1.42,6.54,2A89.34,89.34,0,0,0,561,58.17,11.34,11.34,0,0,0,566.28,57a8.46,8.46,0,0,1,2.15-.61,28.38,28.38,0,0,1,4.42-.38l-2.24.95c13-2.45,26.49-5.36,38.53-9.72a5.74,5.74,0,0,1-1.84.92c2.73-.32,9.53-2.87,9.46-3.26,1.9-.53.54.21,1.76,0,2.66-.49,6.29-2.51,7.8-2.42.25,0-.68.36-1.14.53.8-.35,2.77-.89,4.31-1.35s2.66-.81,1.78-.87c4.65-1,8.73-2.5,12.49-3a20.31,20.31,0,0,1,4.92-1.21c1.79-.28,3.36-.54,3.67-1-.09.47,2,.28,4.43,0,1.22-.15,2.54-.4,3.75-.57s2.28-.36,3-.53c-1,.36,2.59.05,1.46.53,3.35-.23,6.42-.45,5.83-.91a36.61,36.61,0,0,0,4.61.39c.76,0,1.51,0,2.24,0l2.13.06a32.28,32.28,0,0,1,3.85.23,9,9,0,0,1,3,1l1.84.21c.61.07,1.2.23,1.8.33l3.54.71c1.18.24,2.29.65,3.42,1l1.69.51a11.6,11.6,0,0,1,1.66.57l3.21,1.3c.53.22,1.07.43,1.59.66l1.55.75c2.06,1,4.09,2.14,6.15,3.23-.37.32-2.63-.94-4.75-2.1a32,32,0,0,0-2.89-1.44c-.79-.32-1.33-.39-1.34-.15,7.68,3.3,12.33,6.32,21,8.84,2.21.72-1.38,0-2.19-.07a101.83,101.83,0,0,0,12.83,2.49c4.12.55,8.07.92,12,1.1a6.85,6.85,0,0,1-1.68.07c1.54.13,3.54.51,3.41.08l-1.5-.05c-2.37-.86,6.19-.57,6.49-.89-2.7.93,7.63,1,3.37,2.09,1,0,2.3-.07,2.09-.36,1.49.21,1.95.42.4.59,5.5.26,3.59-.31,8.56.07,0,.19-1,.2-1.58.39a42.58,42.58,0,0,1,9.29.08c-.26.1.22.29-1,.2,3.61.26,6.71.12,9.88.12s6.42,0,10.38.36c-2.38.77,2.68.4,3.07,1.16l4.27,0-1.7-.43c3.73.17,7-.33,10.25,0l-2.78.23,7,0-4-.39c3.78-.29-.39-.95,4.57-.62-1,.06,3.73,0,5.67.5h0a30.39,30.39,0,0,1,6.51-.23c.71.24-.58.82-.12,1,1.83-.63,8.75-.22,11.05-.9-.77.16-.8.55-.55.63l1.52-.51c1.73.15,2,.2,1.71.53,5.21,0-1.66-.91,4.51-.64a11.9,11.9,0,0,1-1.25.22c3.1,0,6.09-.1,9-.26s5.79-.36,8.64-.34c1.71.68-5,.37-3,.93,2.05-.11,4.14-.27,6.24-.43l6.31-.62c2.1-.21,4.2-.41,6.26-.57s4.1-.34,6.08-.43l-1.48,0c1-1.15,6,.13,9.92-.7-1,.16-1.24.7-1,.56,5.44-.32,11.08-1.15,19.25-2.37l-1,.37c1.61,0,3.71-.22,5.85-.42s4.3-.47,6-.61c1-.39,3-.58,1.72-.84a50.36,50.36,0,0,0,9.19-.6c1.48-.22,2.94-.47,4.39-.73l2.15-.39.54-.1.36-.08.75-.15.78.71,1,1,1.06,1,1.19,1.21.64.68.92-.08.92-.07.78,0c1-.07,2,0,3-.13-.28.06-.59.15-.88.23s-.57.11-.78.16c-.43.11-.59.19-.13.14a43.16,43.16,0,0,0,8-2.16c-.77-.24-1.12.07-2.86.24a15.86,15.86,0,0,1,2.1-1c.88-.37,1.89-.71,2.8-1.14a7.75,7.75,0,0,0-1.32.79c-.1.12.09.16.43.14.68-.09,2-.45,2.76-.64-.3,0,.14-.38,0-.46a5.1,5.1,0,0,0,1.91-.64,1.22,1.22,0,0,0,.47-.59,2,2,0,0,1,.7-.77,6.72,6.72,0,0,1,.94-.55c.41-.22.94-.45,1.57-.8l-.13.37c.88-.64,1.69-1.31,2.53-2s1.62-1.41,2.57-2.08c1.1-.18-1.66,1.61-1.52,2.06.64-.51,1.25-1.07,1.84-1.64a21.13,21.13,0,0,0,1.67-1.75c.52-.61,1-1.19,1.59-1.73.27-.26.56-.52.85-.76s.56-.5.86-.73c-.21.28-.45.59-.72.9l-.88.9c-.6.61-1.2,1.21-1.66,1.75a26.12,26.12,0,0,0,2.79-1.93c.63-.51,1.06-1.08,1.93-1.94l-.17.17c.65-.68,1.37-1.3,2-2l1.84-2.16-1,1.05a23,23,0,0,1,1.36-2.93c.49-1,1.07-1.89,1.68-2.85a23.82,23.82,0,0,0,2.91-6.9c-1.27,5.32.12,1,.52,1.63.72-1.25,1.71-3.25,1.63-2.61a15.31,15.31,0,0,1,1-3.6,14.42,14.42,0,0,0,.71-4.51c.28-.12.33-2.85.77-2.19.21-3.53-.42.8-.63.46a26.62,26.62,0,0,1,.13-3L993,0l-3.08,7.94a34.11,34.11,0,0,0-2.23,7.93,20.48,20.48,0,0,0,.75,9.27,21.78,21.78,0,0,0,2.93,6.61l.78,1.2.91,1.22c.31.43.64.89,1,1.36s.78,1,1.31,1.57c.52.88.13.68-.41.24a6.12,6.12,0,0,1-.78-.74c-.21-.25-.37-.42-.37-.42a18.05,18.05,0,0,0,6.23,6.43c-.62-.23-.18.26.5,1a5.69,5.69,0,0,0,2.08.89,11.22,11.22,0,0,1,2.56,1.2,9.52,9.52,0,0,1-2.65-.44,30.16,30.16,0,0,0,8.82,2.42c.75.49-1.95.16-3.08,0l1.38.34,1.52.26a27.7,27.7,0,0,0,3.08.31c1,0,1.91,0,2.64-.08a5.88,5.88,0,0,0,1.54-.37c-.75-.06-1.48-.06-2.22-.19,1.25,0,.65.49-.3.54a8,8,0,0,1-3.3-.28,2,2,0,0,1-1.09-.62,19.85,19.85,0,0,0,2.18.21,8,8,0,0,0-2.27-.82c-.47-.12-1-.21-1.55-.32s-1.12-.27-1.72-.4a22.54,22.54,0,0,1-6.85-2.7l2,.21c-.68-.28-1.4-.52-2.07-.85s-1.36-.66-2-1.05c-.59-.81-.77-1.53.93-.29-2.07-2.26-2.29-1.54-3.74-3.78-.13-.27,0-.19.18,0a26.33,26.33,0,0,1-2-2.2c.48.37.19-.73,1.15.81-1.39-2.25-2.51-4-3.36-5.54a8.29,8.29,0,0,1-1.34-3.79l.18.41c-.31-.86-.53-1.52-.67-2s-.27-.86-.36-1.09c-.2-.47-.26-.5-.37-.45s-.44.45-1.14-2.35l.62-1.95.77-1.86a6.74,6.74,0,0,1-.57-.75c.09-.76.26-2.26.49-1.94.08-2.86-.34.44-.45-1.26.46-1.52,1.06-3.48,1.73-5.28l-.55-.12c-.12,1.31-.23,2.57-.39,3.54,0,.24-.08.47-.13.67a4.75,4.75,0,0,1-.2.54,1.3,1.3,0,0,1-.45.61c.19,1.39,1.06-3.41.58.53-.65.45-.75,1.59-1,3-.16.7-.31,1.47-.53,2.26-.1.4-.22.8-.36,1.19a7.19,7.19,0,0,1-.58,1.14,3.6,3.6,0,0,1,.15-1.06c.08-.39.15-.77.2-1,.09-.51.06-.46-.71,1a9,9,0,0,1-1.46,4.12l-1.42,2.2-.64,1.05c-.22.33-.43.65-.6.95.14.13,0,.52-.28,1.11a13.55,13.55,0,0,1-1.4,2.23l-2.14,2.78c-.83.92-1.67,1.87-2.43,2.8.05-.16-1.66,1.31-3.82,3.11-1.15.82-2.37,1.78-3.62,2.58s-2.45,1.49-3.43,2l.05-.16c-.18.51-1.3,1.28-2.73,2.13A20.38,20.38,0,0,1,961,48.84c-.83.35-1.64.79-2.42,1.06,0-.23.11-.41.43-.67a11.47,11.47,0,0,1,1.6-1,23.15,23.15,0,0,1-2.86,1.11,8,8,0,0,1-1.22.68l-.93.39a7.46,7.46,0,0,1-1.26.41c.2-.24.42-.44.61-.7-2,.42-3.94,1.14-6.14,1.4l-1.3.22-.28,0-.2-.19-.41-.41-.6-.61-.66-.7-.66-.73-.7-.8c-.24.12.25,1.14.29,1.66,0,.26-.07.39-.44.22a5.16,5.16,0,0,1-.77-.51c-.33-.25-.69-.55-1.14-.94v-.11a.45.45,0,0,1,.17-.49c.13-.08.43,0,1,.55l-.92-.78a10.52,10.52,0,0,1-1.75.24l1.87-.59.63.45-.57-.63a3.35,3.35,0,0,0-1.51.4,3.49,3.49,0,0,1-1.41.38c0-.4-1.49-.08-1.25-.43.25-.05.68-.07,1.15-.11l.69-.07.34-.06.38-.1-1,.1-.87.06c-.58,0-1.15.08-1.68.1a14,14,0,0,1-2.44-.07c.22.2.07.53-1.54.8-4.18.59-1.49-.28-4-.15-1,.39-3.68.42-3.68,1a3.94,3.94,0,0,1-2-.21c-2.14.53-10.12,1.25-7.61,1.6l.56,0-.35.06h0a97.08,97.08,0,0,1-10.94,1.21c-3.71.22-7.42.35-10.95.79v-.2c-4.21.6-9.4.81-12.4,1.47-1.25.08-3-.16-2.45-.43a46.25,46.25,0,0,1-8.27.5c3.23-.52-1.14-.25,3.32-.43-4.22,0-5.18-.19-9.67.54,1.51-.56-3.2-.51-5.19-.29l3,.25c-2.24.16-4.21.19-6.21.22l1.06-.7a76.11,76.11,0,0,0-11.8.53,33.59,33.59,0,0,1-10.27-.07c-2.28.48,4.68.31,2.65.86-4-.07-8.1-1-9.34-1-5.42-.42-5.06.92-10.74.61.72.24,1.4.9-2.85,1-4-.19-4.86-1.12-2.35-1.25,1,0,1.41.1,1.37.17,1.28-.05,3-.11,1.4-.4l-.52.22c-2-.29-7.42-.41-6.12-.77-3,.15-1.3.36.92.54-2.54-.24-4.52-.29-6.52-.34s-4-.13-6.64-.35c.83.16,1.58.47.75.43-7.65-.63-3.39.35-8.6.16-2.93-.53,1.11-.8-4.14-.8-3.18-.43-.64-.67.64-.79a38.62,38.62,0,0,1-6.57-.37c-1.95-.27-3.65-.62-5-.76h2.51c-1.5,0-2.73-.1-4-.19l1.39.58c-1.46-.19-2.71-.29-2.66-.48-1.54.2,1.1.87-1.94,1.07-2-.36-6-.22-6.62-.91,6.14.76-.63-.68,4.59-.35a25.4,25.4,0,0,1-3.7-.32c-.21-.09.22-.11.62-.11-5.83-1.1-2.76.46-8.87-.11.81-.28-1.35-.79-2.35-.82,2.46.24,1.12.72-1.17.75-3.88-.69-4.27-.25-6.31-.5l2.32.38c-.83.27-2.78,0-5.52-.17-.2-.3,2.5.08,1.54-.15-3.11.3-6.78-1.36-10.95-1.61-1.87-.56-.08-.68-1.71-1.14a15.14,15.14,0,0,1-4.68-1.08c-1.19-.46-2.38-.92-4.63-1.59.54.47.9.68.69.7a14.11,14.11,0,0,1-2.62-.61,43.83,43.83,0,0,0,7.6,2.19,48.53,48.53,0,0,1-5.09-.8,56.82,56.82,0,0,0,6.35,1.58c-2.48-.17-2.22-.25-1.17.42a26.63,26.63,0,0,0-4.81-1.52,16.28,16.28,0,0,1-5-2l.63-1a76.75,76.75,0,0,0-7.33-3.93c-1.3-.62-2.66-1.28-4.16-2s-3.16-1.33-4.93-2.2l2.23,1.22a10.12,10.12,0,0,1-2.95-1.06c-1.32-.47-2.8-1-4-1.35.34-.28-1.1-1-2.11-1.49a12.38,12.38,0,0,1-2.89-.51c-.76-.16-1.55-.31-2.2-.39a2.37,2.37,0,0,0-1.38.18l-3.37-1.08a17.82,17.82,0,0,0-3.89-.36c-1.07,0-2,.06-2.86.13a37.49,37.49,0,0,1-6.52.34c1.82-.39-.94-.73,3.13-.95-2-.06-3.86-.16-3.88.14a19.19,19.19,0,0,0-3.47.26c-.74.09-1.5.16-2.19.22a8.58,8.58,0,0,1-1.78.06,8.34,8.34,0,0,1-3.31.86c-.26-.06,0-.2,0-.2s-3.46.7-1.46.87a34.27,34.27,0,0,0-5.4.21c-2,.28-4.06.67-6.13,1.05s-4.08.92-5.94,1.26a30.4,30.4,0,0,1-4.89.73c-4.21,1.17-9.23,2.69-13,3.81.21-.18,0-.19.69-.36-5.34,1.18-2.9,2-8.95,3.41-3.21.31,3-1.29,1.09-.95-1.2-1-7.1,2.36-11.29,2.82l.94-.36c-3.17.49-7.28,2.68-12.31,3.93,0,0,.21-.18,0-.2-3.25,1.56-9.72,3.36-14.58,4.45,1.42-.79,2.17-.68,1.14-1-2.18.49.81.7-3.56,1.67-1.48-.06-4.68.25-5.18-.28,1.38-.18,2.75-.45,4.12-.67a10.91,10.91,0,0,0-3.77.32c-1.33.25-2.67.58-3.76.66l.24-.35c-3.16.37-4.75.76-6.42,1-.83.15-1.68.29-2.75.42S556.75,54,555,54l.71.23a7.11,7.11,0,0,1-3.46.07,11.36,11.36,0,0,0-3.45-.2l-1.06-.88c-1.25,0-3.4-.08-5.82-.23a59.31,59.31,0,0,1-7.25-1.06c.65,0,1.45.08,2.34.18s1.89.14,2.9.24c2,.25,4.1.28,5.7.35l-2.32-.31-1.4-.16L540.48,52a37.79,37.79,0,0,0-4.33-.52,29.74,29.74,0,0,1,3.16.52c-.76,0-1.59,0-2.46-.08s-1.8-.23-2.79-.39a26,26,0,0,1-3.09-.66c-1.08-.29-2.21-.59-3.39-1,.33-.3-.26-.73-1.37-1.23s-2.75-1.09-4.49-1.78c-3.51-1.33-7.5-3-8.93-4.23-8.28-2.79-15.81-7.18-25.61-10.58,3.07,2.32-2.87-1-2.66.41a24.42,24.42,0,0,1-3.35-1.09c-2.24-1-4.55-1.79-6.86-2.64-.81-.34-.23-.31.53-.18s1.7.33,1.62.17c-2.56-.74-3.11-.9-3.39-1.15s-.37-.43-2.08-.95c.31.29-.17.34-1.11.24a30.37,30.37,0,0,1-3.84-.58c1.39.41,2.78.78,4.15,1.22a33.28,33.28,0,0,1-6.87-1.16,25.11,25.11,0,0,0-2.66-.57,24.59,24.59,0,0,0-4.32-.1l2.4-.28c-1,0-2.35,0-3.93-.05s-3.36,0-5.13.14-3.53.25-5.08.5a23.8,23.8,0,0,0-3.78.86c-.68-.07-1.61-.3.06-.57a103,103,0,0,0-14.25,2.56c-4.67,1.14-9.06,2.3-12.54,2.89l.6-.46c-1.62.51-2.72,1.26-4.83,1.52.07-.14.58-.46-.18-.28a47.1,47.1,0,0,1-6.38,2.13l1.74-.85c-8.59,2-12.73,4.56-19.73,6.83-.23-.85-6.93.83-10.28,1.67l.08-.15c-9.82,2.79-16.44,5.6-25.4,8.68a96.19,96.19,0,0,0-12.94,3.36l-7.91,2.5L325,57.88l-.35.11a2.71,2.71,0,0,0-.39.17l-.57.28-.78.36a12.22,12.22,0,0,1-1.52.63c1.29-.33.09.7-1.35,1.37-.49.18-1.1.31-1.68.53a18.19,18.19,0,0,1-1.75.6c-1.11.29-1.94.45-1.84,0l.73-.12a15.3,15.3,0,0,0-3.92-.09c-.84,0-1.72,0-2.6.05l-2.6-.12-.64,1c-2.18-.6-4.66-1.18-7.22-1.94a60.46,60.46,0,0,1-7.6-2.75,34.81,34.81,0,0,1-6.4-3.59c-.44-.32-.86-.63-1.24-.94s-.63-.61-.91-.89a7.23,7.23,0,0,1-1.16-1.75c-1.51-1.34-3-3.64-4.45-5.39l.54-.21c-1.71-2.68-3.34-4.94-6-6.67a11.76,11.76,0,0,0-2.18-1.12A6.07,6.07,0,0,0,267.9,37a13.19,13.19,0,0,0-1.31-.31l-1.38-.13-.73,0-.72,0-1.51.1c-.49.05-1,.12-1.44.19a15.71,15.71,0,0,1,1.61-.58,13.39,13.39,0,0,0-4.66,1.31,4.5,4.5,0,0,1-3.77.29,3.28,3.28,0,0,1-.2-1.12l-.32-.32-.28-.39a7.72,7.72,0,0,1-.5-1.06A10.39,10.39,0,0,0,250.36,31a4.47,4.47,0,0,0-2.23-1.12,4.09,4.09,0,0,0-1.26,0,4.28,4.28,0,0,0-1.22.3c-1.48.5-3.12,2.84-3,2.48a2.27,2.27,0,0,1-1,.17c-.58,0-1.37-.1-2.3-.16A9.1,9.1,0,0,0,236,33a9.73,9.73,0,0,0-2.77,1.49c.08-.16.09-.56,1.53-1.27A17.42,17.42,0,0,0,231,35.47l-1.75,1.36c-.55.42-1,.76-1.6,1.12-2.17,1.38-4.17,2.59-3.29,2.79-.11-.16-.6,0-1.33.38-.36.18-.82.46-1.25.72s-.91.54-1.4.85c-1,.66-2.12,1.24-3.19,1.89s-2.16,1.15-3.07,1.55l.38-.73a30.57,30.57,0,0,1-3.11,1.81c-.47.22-1,.43-1.67.68s-1.55.46-2.68.77c-1.12.12-1-.23.43-.41-3.68.39-2.75,1.11-7.29,1.27.55-.16,1.1-.32,1.64-.51a22,22,0,0,0-5.59.93c-2.43.31-7.33-.23-7.86-.82a10.58,10.58,0,0,1-4.94.17c-.29-.22.55-.25,1-.27-6.38-1-9.66-.58-14-1.84-.06-.2-.34-.34-.69-.46,5.09.9,9.19,1.48,8.8,1.46.07-.49-4-1.19-.66-1.41-3.33-.06-9.12-.19-13.1-1.16a3.87,3.87,0,0,1-.5-.27h.43a15.8,15.8,0,0,0-2.56-.37c-1.27-.32-2.07-.53-3.3-.76-.4-.51-4.71-1.08-6.79-1.44.08.58-2.62,0-.15.92-.33-.09.4,0,1.78.21.31,0,.68.09.89.1l-.15,0,5.14.88a18,18,0,0,1-5.66-.79c-1.12.17-2.35.35-3,.41-2.7-1.26-8.15-2.46-8.87-3-3.23-.25-7-.56-10.58-.57a44.22,44.22,0,0,0-8.69.71,4.71,4.71,0,0,1-2.71-.59,24.11,24.11,0,0,0,2.83-.12,66.42,66.42,0,0,1-6.74-.17c-2.29-.14-4.22-.36-4.71-.07-2.16-.62-1.48-.69-1.06-.68s.61,0-2.29-.72h.84a28.61,28.61,0,0,1-7-3.56,12.93,12.93,0,0,1-2.46-2.38L99.22,33a4.24,4.24,0,0,1-.38-.65L98.21,31c-.38-.95-.74-1.84-1-2.67l-.2,0c-.09.06-.18.16-.27.23l-.55.49L95.1,30c-.7.62-1.39,1.23-2.07,1.8l-.89.74c-.25.22-.51.43-.78.64-.54.41-1.08.83-1.65,1.24a38.66,38.66,0,0,1-8,4.41,5,5,0,0,1,1.52-.54c-3.45,1.74-7,3.38-10.66,4.84q-2.75,1.1-5.56,2c-1,.29-1.88.61-2.84.87l-1.43.42-1,.26-.5.14c-.08,0-.18.06-.24,0l-.15-.21c-.18-.27-.38-.53-.55-.82s-.46-.71-.68-1.12-.48-.84-.69-1.28a29.17,29.17,0,0,1-2.11-5.38,28.71,28.71,0,0,1-1-5.63c0-.47,0-.95-.07-1.42,0-.23,0-.47,0-.7s0-.66,0-1c.06-1.41.21-2.89.42-4.49L56.44,22h-.18l-.32.18-.6.37-1.05.67c-.65.42-1.2.81-1.71,1.18l-3,2.3c-.2,0-.47,0-.65,0l-.56,0-3.6,2.91C39.38,33.35,34.28,34,27.67,39l1.12-.18c-2.58,1.42-7.95,4.92-7.76,4.27a3.73,3.73,0,0,1-1.72,1.25l-.24-.22-6,4.12c-5,2.64.12-1.52-7,2.56C3.53,52.46-.92,56,.17,55.59,1.24,55,3,54.18,3.22,54.4L.9,56c0,1.06-1.34,3,4.9.07l3.83-2.89,1.55-.39-3.45,2a13.48,13.48,0,0,0,4.5-2.87,5,5,0,0,0,2-.58l3.59-3.13c.68,0-1.45,1.68,1.37.27,1.68-1.47-2.23.35.77-1.71,2.18-.79,1.78-.16,3.91-1.82.44,0,0,.44-.83,1.06,1.91-1.45,5.38-3.29,6.19-4.33,2.32-.75,6.88-4.18,7.13-3.3a40.08,40.08,0,0,1,5.14-3.86c-2.92,2.93,7.11-4.08,6.77-2.57a10.58,10.58,0,0,1,1.3-1.17l.87-.63.23-.16c.08,0,.2-.13.18-.13l.11-.11a6,6,0,0,1,.57-.43l.34-.22L52,29c.06,0,.14-.11.11,0a5.34,5.34,0,0,0,0,.89,3.31,3.31,0,0,0,.09.48l0,.14,0,.41c0,.27.09.53.13.79,0-.16-.13-.38-.19-.63a2.63,2.63,0,0,1-.06-.39l0-.19s0,0,0-.06c0,1.52,0,2.5.07,3.34a25.55,25.55,0,0,0,.15,2.66c.43.12.94,1.37,1.59,2.84a28.71,28.71,0,0,0,2.24,4.2c.48,1.86,0,1.46-.57.73s-1.28-1.81-1.38-1.1c.25-.21,1,1.29,1.9,2.58a13.83,13.83,0,0,0,1.16,1.6c.45.58.66.73.51.24.48,1,.9,1.71,1.21,2.27l.4.73,0,.08h.07l.14,0,.26,0a13.21,13.21,0,0,1,2.22,0,2.07,2.07,0,0,1,1-.7l.59-.22.6-.17a10.19,10.19,0,0,0,3-1.12,7.35,7.35,0,0,1,2.69-.24c.34,0,.71,0,2.78-1C75,46.62,71.32,48.35,71.32,48.35Zm94,.85h0l-2.13-.35Zm8.7,1.47L170.2,50c-.28-.24.09-.39,1-.23C170.66,49.86,172.7,50.3,174,50.67Zm-17.66-7.05a4.24,4.24,0,0,1,2,.5c-.65-.1-1.41-.22-2.42-.36a1,1,0,0,0-.17,0A1.37,1.37,0,0,1,156.31,43.62Z"/><path class="cls-3" d="M153.71,43.91c-.2,0-.31,0-.57-.06l.79.27.52-.09Z"/><path class="cls-3" d="M916,50.65h-.18a3.15,3.15,0,0,1,.39,0A2,2,0,0,1,916,50.65Z"/><polygon class="cls-3" points="278.64 55.45 278.73 55.34 278.04 54.8 278.64 55.45"/><path class="cls-3" d="M962.22,50.31a2.17,2.17,0,0,0,.66-.12A2.42,2.42,0,0,0,962.22,50.31Z"/><path class="cls-3" d="M979.49,38a29.07,29.07,0,0,0,2.14-2.16l-.62.68-.58.56Z"/><path class="cls-3" d="M988.7,24.34a.82.82,0,0,0-.1-.4l0,0Z"/><path class="cls-3" d="M746,53.77l-.62-.05C743.91,53.68,744.9,53.74,746,53.77Z"/><path class="cls-3" d="M822.13,56.92c-.81.1-1.61.19-2.45.25C821,57.22,822.09,57.24,822.13,56.92Z"/><path class="cls-3" d="M665,35.05h0l-.51.05Z"/><path class="cls-3" d="M816.14,57.12a22.43,22.43,0,0,0,3.54.05A34.8,34.8,0,0,0,816.14,57.12Z"/><path class="cls-3" d="M1015.49,49.15l.82.07s0-.07.1-.09Z"/><path class="cls-3" d="M1016.41,49.13a7,7,0,0,0,.91-.05A5.71,5.71,0,0,0,1016.41,49.13Z"/><path class="cls-3" d="M1019.21,48.9l-1.89.18A6.58,6.58,0,0,0,1019.21,48.9Z"/><path class="cls-3" d="M995.63,39.77l-.33-.05A.32.32,0,0,0,995.63,39.77Z"/><path class="cls-3" d="M991.59,34.3A21.2,21.2,0,0,0,995,39.67l.27,0a9.37,9.37,0,0,1-1.89-2.48c-.33-.58-.67-1.15-1-1.67A6.63,6.63,0,0,0,991.59,34.3Z"/><path class="cls-3" d="M990,9.26l.12-.91,1.81.41-.8,2-.62,2.08c.45-.84,1-1.9.49.38,1-2.91,1-2.74.73-2.55s-.65.53.22-1.91l-1.86-.42C990.05,8.6,990,8.91,990,9.26Z"/><path class="cls-3" d="M985.4,24.88c1.1-2.61-.26-.08-.34-.29C984.41,26.25,984.25,26.67,985.4,24.88Z"/><path class="cls-3" d="M878.28,53.4l.26-.52C876.31,53.07,878.53,53.08,878.28,53.4Z"/><polygon class="cls-3" points="855.21 57.11 857.4 57.35 858.43 56.84 855.21 57.11"/><path class="cls-3" d="M841.42,53.79l1-.1c-1.25.1-2.49.15-3.73.23Z"/><path class="cls-3" d="M641,33.81l.81.47C643.27,33.86,643.44,33.1,641,33.81Z"/><path class="cls-3" d="M555.81,53.6a14,14,0,0,0-4.87-.33A47,47,0,0,0,555.81,53.6Z"/><path class="cls-3" d="M301.72,61.25l1.68.1c-1-.16-2.09-.23-3.12-.45A14.38,14.38,0,0,0,301.72,61.25Z"/></g></g></g></g></svg>